<?xml version="1.0" standalone="no"?>
<!DOCTYPE svg PUBLIC "-//W3C//DTD SVG 20010904//EN"
 "http://www.w3.org/TR/2001/REC-SVG-20010904/DTD/svg10.dtd">
<svg version="1.0" xmlns="http://www.w3.org/2000/svg"
 width="32.000000pt" height="32.000000pt" viewBox="0 0 32.000000 32.000000"
 preserveAspectRatio="xMidYMid meet">

<g transform="translate(0.000000,32.000000) scale(0.100000,-0.100000)"
fill="#000000" stroke="none">
<path d="M25 295 c-30 -30 -32 -64 -4 -99 26 -33 79 -36 109 -6 30 30 27 83
-6 109 -35 28 -69 26 -99 -4z"/>
<path d="M196 299 c-33 -26 -36 -79 -6 -109 30 -30 83 -27 109 6 28 35 26 69
-4 99 -30 30 -64 32 -99 4z"/>
<path d="M11 137 c-8 -11 -5 -19 14 -37 l25 -24 -25 -26 c-21 -22 -23 -29 -12
-38 11 -9 19 -6 37 13 l24 25 26 -25 c24 -23 28 -24 40 -10 11 13 9 20 -10 40
l-23 25 23 25 c18 19 21 28 12 37 -9 9 -17 6 -36 -11 -20 -19 -28 -21 -45 -12
-12 7 -21 16 -21 21 0 14 -16 12 -29 -3z"/>
<path d="M175 139 c-4 -6 3 -21 16 -35 l22 -24 -22 -24 c-23 -24 -21 -46 3
-46 7 0 21 9 31 20 l18 20 27 -25 c22 -21 29 -23 38 -12 9 11 6 19 -13 37
l-25 24 25 26 c23 24 24 28 10 40 -13 11 -20 9 -40 -10 l-25 -23 -23 21 c-26
25 -33 27 -42 11z"/>
</g>
</svg>
